<?xml version="1.0" encoding="utf-8"?>
<!-- Generator: Adobe Illustrator 21.1.0, SVG Export Plug-In . SVG Version: 6.00 Build 0)  -->
<svg version="1.1" id="Слой_1" xmlns="http://www.w3.org/2000/svg" xmlns:xlink="http://www.w3.org/1999/xlink" x="0px" y="0px"
	 viewBox="0 0 512 512" style="enable-background:new 0 0 512 512;" xml:space="preserve">
<style type="text/css">
	.st0{fill:transparent;}
</style>
<path class="st0" d="M411.6,169.7C408.3,83.8,336,16.8,250.1,20C211.9,21.5,175.5,37,148,63.5c-30.7,29.2-48,69.7-48,112
	c0,6.6,5.4,12,12,12h84.8c6.4,0,11.7-5.1,12-11.5c-0.2-26,20.8-47.3,46.8-47.4c0.1,0,0.3,0,0.4,0h1.9c24.4,1.4,43.9,20.9,45.2,45.3
	c0.5,17.2-8.3,33.4-23.1,42.2c-48.4,29.1-78.1,81.3-78.5,137.7c0,6.6,5.4,12,12,12h84.7c6.6,0,12-5.4,12-12
	c0.2-18.3,9.9-35.3,25.8-44.6C384.7,279.9,413.7,226.5,411.6,169.7L411.6,169.7z"/>
<circle class="st0" cx="256" cy="437.8" r="54.2"/>
<path d="M411.6,169.7C408.3,83.8,336,16.8,250.1,20C211.9,21.5,175.5,37,148,63.5c-30.7,29.2-48,69.7-48,112c0,6.6,5.4,12,12,12
	h84.8c6.4,0,11.7-5.1,12-11.5c-0.2-26,20.8-47.3,46.8-47.4c0.1,0,0.3,0,0.4,0h1.9c24.4,1.4,43.9,20.9,45.2,45.3
	c0.5,17.2-8.3,33.4-23.1,42.2c-48.4,29.1-78.1,81.3-78.5,137.7c0,6.6,5.4,12,12,12h84.7c6.6,0,12-5.4,12-12
	c0.2-18.3,9.9-35.3,25.8-44.6C384.7,279.9,413.7,226.5,411.6,169.7L411.6,169.7z M323.6,288.6c-19.5,11.5-32.9,31-36.7,53.3h-60.6
	c4.2-43.6,28.8-82.5,66.3-105.1c22.3-13.4,35.5-38,34.5-64c-1.8-36.9-31.3-66.4-68.2-68.3c-19.4-0.8-38.2,6.4-52.2,19.8
	c-11,10.5-18.3,24.3-20.8,39.3h-61C131.1,95.8,188,44,256,44h5.2c72.7,2.9,129.3,64.2,126.4,136.9c-1.8,44.3-25.7,84.7-63.6,107.6
	L323.6,288.6z"/>
<path d="M256,383.4c-30,0-54.4,24.2-54.4,54.2c0,30,24.2,54.4,54.2,54.4s54.4-24.2,54.4-54.2c0,0,0-0.1,0-0.1
	C310.2,407.8,286,383.5,256,383.4L256,383.4z M256,468c-16.7,0-30.4-13.5-30.4-30.2s13.5-30.4,30.2-30.4s30.4,13.5,30.4,30.2
	c0,0.1,0,0.1,0,0.2C286.2,454.5,272.7,468,256,468L256,468z"/>
</svg>
