<?xml version="1.0" encoding="utf-8"?>
<!-- Generator: Adobe Illustrator 21.1.0, SVG Export Plug-In . SVG Version: 6.00 Build 0)  -->
<svg version="1.1" id="Слой_1" xmlns="http://www.w3.org/2000/svg" xmlns:xlink="http://www.w3.org/1999/xlink" x="0px" y="0px"
	 viewBox="0 0 512 512" style="enable-background:new 0 0 512 512;" xml:space="preserve">
<style type="text/css">
	.st0{fill:transparent;}
</style>
<path class="st0" d="M464.9,205l-36.8-4.7c-3-9.3-6.8-18.3-11.1-26.9l22.7-29.2c9.2-11.8,8.1-28.5-2.4-38.7l-30.8-30.8
	c-10.3-10.6-27-11.7-38.8-2.5L338.5,95c-8.6-4.4-17.5-8.1-26.9-11.1L307,47.2c-1.8-14.7-14.3-25.8-29.1-25.8h-43.8
	c-14.8,0-27.3,11.1-29.1,25.7l-4.7,36.8c-9.3,3-18.3,6.8-26.9,11.1l-29.2-22.7c-11.8-9.2-28.5-8.1-38.7,2.4l-30.8,30.8
	c-10.6,10.3-11.7,27-2.5,38.8L95,173.5c-4.4,8.6-8.1,17.6-11.1,26.9L47.1,205c-14.7,1.8-25.8,14.3-25.8,29.1v43.8
	c0,14.8,11.1,27.3,25.7,29.1l36.8,4.7c3,9.3,6.8,18.3,11.1,26.9l-22.7,29.2c-9.2,11.8-8.1,28.5,2.4,38.7l30.8,30.8
	c10.3,10.6,27,11.6,38.8,2.5l29.2-22.7c8.6,4.4,17.6,8.1,26.9,11.1l4.7,36.7c1.8,14.7,14.3,25.8,29.1,25.8h43.8
	c14.8,0,27.3-11.1,29.1-25.7l4.7-36.8c9.3-3,18.3-6.8,26.9-11.1l29.2,22.7c11.8,9.2,28.5,8.1,38.7-2.4l30.8-30.8
	c10.6-10.3,11.7-27,2.5-38.8L417,338.5c4.4-8.6,8.1-17.6,11.1-26.9l36.7-4.7c14.7-1.8,25.8-14.3,25.8-29.1v-43.8
	C490.7,219.3,479.6,206.8,464.9,205z"/>
<circle class="st0" cx="256" cy="256" r="106.7"/>
<path d="M274.6,512h-37.1c-18.9,0-34.5-13.6-37.2-32.3l-5.5-41.7c-8.4-2.8-16.4-6.1-24.3-10l-33.2,25.5c-14.7,11.4-35.9,10-49.2-3.3
	l-26.2-26.2c-13.3-13.3-14.7-34.5-3.3-49.3l25.5-33.2c-3.9-7.8-7.2-15.9-10-24.3l-41.6-5.5C13.6,309.1,0,293.5,0,274.6v-37.1
	c0-18.9,13.6-34.5,32.3-37.2l41.7-5.5c2.8-8.4,6.1-16.4,10-24.3l-25.5-33.2c-11.4-14.7-10-35.9,3.3-49.2l26.2-26.2
	c13.3-13.3,34.5-14.7,49.3-3.3l33.1,25.5c7.8-3.9,15.9-7.2,24.3-10l5.5-41.6C202.9,13.6,218.5,0,237.4,0h37.1
	c18.9,0,34.5,13.6,37.2,32.3l5.5,41.7c8.4,2.8,16.4,6.1,24.3,10l33.2-25.5c14.7-11.4,35.9-10,49.2,3.3l26.2,26.2
	c13.3,13.3,14.7,34.5,3.3,49.3l-25.5,33.2c3.9,7.8,7.2,15.9,10,24.3l41.6,5.5c18.9,2.7,32.5,18.3,32.5,37.2v37.1
	c0,18.9-13.6,34.5-32.3,37.2l-41.7,5.5c-2.8,8.4-6.1,16.4-10,24.3l25.5,33.2c11.4,14.7,10,35.9-3.3,49.2l-26.2,26.2
	c-13.3,13.3-34.5,14.7-49.3,3.3l-33.2-25.5c-7.8,3.9-15.9,7.2-24.3,10l-5.5,41.6C309.1,498.4,293.5,512,274.6,512L274.6,512z
	 M169,393c2.8,0,5.5,0.7,8,2.1c11.3,6.5,23.6,11.6,36.5,15.1c6.2,1.7,10.9,7,11.7,13.4l6.8,51.8c0.4,2.7,2.6,4.7,5.5,4.7h37.1
	c2.8,0,5.1-2,5.5-4.8l6.8-51.7c0.9-6.4,5.5-11.7,11.7-13.4c12.9-3.5,25.2-8.5,36.5-15.1c5.6-3.2,12.6-2.8,17.7,1.2l41.4,31.8
	c2.2,1.7,5.1,1.5,7.1-0.5l26.2-26.2c2-2,2.2-4.9,0.6-7.1l-31.8-41.4c-3.9-5.1-4.4-12.1-1.2-17.7c6.5-11.3,11.6-23.6,15.1-36.5
	c1.7-6.2,7-10.9,13.4-11.7l51.8-6.8c2.7-0.4,4.7-2.6,4.7-5.5v-37.1c0-2.8-2-5.1-4.8-5.5l-51.7-6.8c-6.4-0.9-11.7-5.5-13.4-11.7
	c-3.5-12.9-8.5-25.2-15.1-36.5c-3.2-5.6-2.8-12.6,1.2-17.7l31.8-41.4c1.7-2.2,1.5-5.1-0.5-7.1l-26.2-26.2c-2-2-4.9-2.3-7-0.6
	l-41.4,31.8c-5.2,3.9-12.1,4.4-17.7,1.2c-11.3-6.5-23.6-11.6-36.5-15.1c-6.2-1.7-10.9-7-11.7-13.4L280,36.7
	c-0.4-2.7-2.6-4.7-5.5-4.7h-37.1c-2.8,0-5.1,2-5.5,4.8l-6.8,51.7c-0.9,6.4-5.5,11.7-11.7,13.4c-12.9,3.5-25.2,8.5-36.5,15.1
	c-5.6,3.2-12.6,2.8-17.7-1.2l-41.4-31.8c-2.2-1.7-5.1-1.5-7.1,0.5l-26.3,26.2c-2,2-2.2,4.9-0.6,7.1l31.8,41.4
	c3.9,5.1,4.4,12.1,1.2,17.7c-6.5,11.3-11.6,23.6-15.1,36.5c-1.7,6.2-7,10.9-13.4,11.7L36.7,232c-2.7,0.4-4.7,2.6-4.7,5.5v37.1
	c0,2.8,2,5.1,4.8,5.5l51.7,6.8c6.4,0.9,11.7,5.5,13.4,11.7c3.5,12.9,8.5,25.2,15.1,36.5c3.2,5.6,2.8,12.6-1.2,17.7l-31.8,41.4
	c-1.7,2.2-1.5,5.1,0.5,7.1l26.2,26.2c2,2,4.9,2.2,7.1,0.6l41.4-31.8C162.1,394.1,165.5,393,169,393L169,393z"/>
<path d="M256,362.7c-58.8,0-106.7-47.9-106.7-106.7S197.2,149.3,256,149.3S362.7,197.2,362.7,256S314.8,362.7,256,362.7z M256,181.3
	c-41.2,0-74.7,33.5-74.7,74.7s33.5,74.7,74.7,74.7s74.7-33.5,74.7-74.7S297.2,181.3,256,181.3z"/>
</svg>
