<?xml version="1.0" encoding="utf-8"?>
<!-- Generator: Adobe Illustrator 21.1.0, SVG Export Plug-In . SVG Version: 6.00 Build 0)  -->
<svg version="1.1" id="Capa_1" xmlns="http://www.w3.org/2000/svg" xmlns:xlink="http://www.w3.org/1999/xlink" x="0px" y="0px"
	 viewBox="0 0 360 360" style="enable-background:new 0 0 360 360;" xml:space="preserve">
<style type="text/css">
	.st0{fill:transparent;}
</style>
<g>
	<rect x="272.9" y="43.3" class="st0" width="76.6" height="272.4"/>
	<rect x="141.7" y="131" class="st0" width="76.6" height="184.7"/>
	<rect x="10.4" y="191.1" class="st0" width="76.6" height="124.6"/>
</g>
<path d="M229,130.5c0-5.5-4.5-10-10-10h-77c-5.5,0-10,4.5-10,10v185c0,5.5,4.5,10,10,10h77c5.5,0,10-4.5,10-10V130.5z M208,305.5
	h-56v-165h56V305.5z"/>
<path d="M360,43.5c0-5.5-4.5-10-10-10h-77c-5.5,0-10,4.5-10,10v272c0,5.5,4.5,10,10,10h77c5.5,0,10-4.5,10-10V43.5z M340,305.5h-57
	v-252h57V305.5z"/>
<path d="M97,191.5c0-5.5-4.5-10-10-10H10c-5.5,0-10,4.5-10,10v125c0,5.5,4.5,10,10,10h77c5.5,0,10-4.5,10-10V191.5z M77,305.5H20
	v-104h57V305.5z"/>
</svg>
